<svg width="512" height="512" viewBox="0 0 512 512" fill="none" xmlns="http://www.w3.org/2000/svg">
  <rect width="512" height="512" rx="64" fill="#0369A1"/>
  <!-- Microphone body -->
  <rect x="208" y="128" width="96" height="160" rx="48" fill="white"/>
  <!-- Microphone stand -->
  <rect x="248" y="288" width="16" height="80" fill="white"/>
  <!-- Microphone base -->
  <rect x="176" y="368" width="160" height="24" rx="12" fill="white"/>
  <!-- Medical cross -->
  <rect x="384" y="160" width="80" height="16" rx="8" fill="white"/>
  <rect x="416" y="128" width="16" height="80" rx="8" fill="white"/>
  <!-- Sound waves -->
  <path d="M120 180 C120 180, 96 220, 96 256 C96 292, 120 332, 120 332" stroke="white" stroke-width="12" fill="none"/>
  <path d="M144 200 C144 200, 128 228, 128 256 C128 284, 144 312, 144 312" stroke="white" stroke-width="12" fill="none"/>
  <path d="M168 220 C168 220, 160 238, 160 256 C160 274, 168 292, 168 292" stroke="white" stroke-width="12" fill="none"/>
</svg>